<svg width="60" height="60" viewBox="0 0 60 60" fill="none" xmlns="http://www.w3.org/2000/svg">
<path d="M8.73922 22.4337L37.6892 47.5337M9.19922 10.6124L46.5617 35.5049L8.51172 19.8687M50.4117 26.4449L26.178 7.48242" stroke="#554874" stroke-width="2" stroke-linecap="round" stroke-linejoin="round"/>
<path d="M30 54.375C37.2613 49.455 51.5 33.825 51.5 19.0375C51.5 12.275 50 6.4 49.6875 6.4C48.95 6.4 47.5 9.6125 42.1875 9.6125C35.5375 9.6125 31.325 5.625 30 5.625C28.675 5.625 24.4625 9.6125 17.8125 9.6125C12.5 9.6125 11.05 6.4 10.3125 6.4C10 6.4 8.5 12.275 8.5 19.0375C8.5 33.825 22.74 49.455 30 54.375Z" stroke="#554874" stroke-width="2" stroke-linecap="round" stroke-linejoin="round"/>
</svg>
