<svg width="67" height="67" viewBox="0 0 67 67" fill="none" xmlns="http://www.w3.org/2000/svg">
<path d="M33.5334 59.2041C47.6145 59.2041 58.98 47.7835 58.98 33.6473C58.98 19.5662 47.6145 8.20068 33.5334 8.20068C19.3972 8.20068 7.97656 19.5662 7.97656 33.6473C7.97656 47.7835 19.3972 59.2041 33.5334 59.2041Z" stroke="#554874" stroke-width="2" stroke-linecap="round" stroke-linejoin="round"/>
<path d="M29.3058 26.4763L27.1374 21.6199C26.3324 19.8155 23.7712 19.8155 22.9662 21.6199L20.7965 26.4763M46.2706 26.4763L44.1023 21.6199C43.2959 19.8155 40.7361 19.8155 39.9296 21.6199L37.7627 26.4763M17.291 33.6678C17.291 42.6416 24.5404 49.8896 33.5142 49.8896C42.4522 49.8896 49.6658 42.6402 49.6658 33.6664C49.6658 33.6664 43.1249 38.9239 33.5129 38.9239C23.9435 38.9239 17.291 33.6678 17.291 33.6678Z" stroke="#554874" stroke-width="2" stroke-linecap="round" stroke-linejoin="round"/>
</svg>
