<svg width="25" height="57" viewBox="0 0 25 57" fill="none" xmlns="http://www.w3.org/2000/svg">
<path d="M17.03 17.9442C15.294 17.9442 13.8852 16.6397 13.8852 15.0292C13.8852 13.4187 15.294 12.1142 17.0315 12.1142C18.769 12.1142 20.1777 13.4201 20.1777 15.0292C20.1777 16.6397 18.7674 17.9442 17.03 17.9442ZM7.85018 17.9442C6.11118 17.9442 4.7024 16.6397 4.7024 15.0292C4.7024 13.4187 6.11118 12.1142 7.84867 12.1142C9.58616 12.1142 10.9949 13.4201 10.9949 15.0292C10.9949 16.6383 9.58768 17.9442 7.85018 17.9442ZM12.4401 10.2611C12.0277 10.2624 11.619 10.188 11.2375 10.042C10.8561 9.89606 10.5093 9.68149 10.217 9.41059C9.92478 9.13968 9.6928 8.81776 9.53437 8.46326C9.37595 8.10877 9.2942 7.72866 9.2938 7.3447C9.2944 6.96087 9.37629 6.58091 9.53481 6.22658C9.69332 5.87224 9.92533 5.55049 10.2176 5.27974C10.5098 5.00898 10.8565 4.79453 11.2379 4.64867C11.6193 4.50282 12.0278 4.42841 12.4401 4.4297C14.1776 4.4297 15.5863 5.7356 15.5863 7.3447C15.5863 8.95522 14.1776 10.2611 12.4401 10.2611Z" stroke="#554874" stroke-width="2" stroke-linecap="round" stroke-linejoin="round"/>
<path d="M5.96668 47.2268V50.7764H1.46769V53.3459H9.32956V56H15.5509V21.2062C16.0377 21.3115 16.531 21.3679 17.0309 21.3754C20.8149 21.3754 23.8809 18.5337 23.8809 15.0292C23.8778 13.6723 23.4075 12.352 22.5392 11.2621C21.6709 10.1722 20.4501 9.37012 19.0562 8.97359C19.2091 8.44183 19.287 7.89381 19.2879 7.34333C19.2864 3.84026 16.222 1.00141 12.441 1C8.66153 1 5.59404 3.83885 5.59404 7.34333C5.59707 7.89333 5.67735 8.44051 5.83186 8.97077C4.43625 9.36612 3.21368 10.1679 2.34387 11.2581C1.47406 12.3484 1.00289 13.6697 0.999611 15.0278C0.999611 18.5337 4.06711 21.374 7.84959 21.374C8.34719 21.3755 8.84347 21.3263 9.32956 21.2273V44.6559H1.46769V47.2268H5.96668Z" stroke="#554874" stroke-width="2" stroke-linecap="round" stroke-linejoin="round"/>
</svg>
